<svg width="236" height="231" viewBox="0 0 236 231" fill="none" xmlns="http://www.w3.org/2000/svg">
<path d="M48.098 205.394C46.7843 206.585 45.175 207.405 43.7929 208.516C42.409 209.624 41.2006 211.176 41.1877 212.948C41.1784 214.537 42.13 216.001 42.191 217.59C42.2704 219.767 40.6518 221.669 38.8189 222.86C36.9897 224.047 34.876 224.766 33.0726 225.999C31.552 227.041 30.2937 228.447 29.4032 230.057H26.4173C26.9605 226.914 28.3296 223.832 27.8844 220.683C27.6312 218.895 26.8072 217.249 26.2288 215.542C25.6487 213.833 25.3161 211.91 26.0348 210.258C26.0884 210.139 26.1457 210.019 26.2085 209.903C26.6483 209.079 27.3042 208.373 27.8751 207.622C30.2383 204.494 31.1012 200.291 30.1681 196.486C29.6082 194.208 28.4553 192.123 27.6977 189.903C25.9018 184.629 26.7905 178.05 31.2139 174.647C34.233 172.323 38.2757 171.864 42.0912 171.842L44.5246 171.912C46.3649 171.652 48.0148 173.309 48.4879 175.097C48.9609 176.889 48.595 178.778 48.3585 180.616C48.122 182.452 48.0555 184.443 49.0311 186.019C49.6075 186.95 50.5 187.653 51.0506 188.596C51.5846 189.514 51.7564 190.591 51.8746 191.645C52.4179 196.553 51.7582 202.068 48.098 205.394Z" fill="#1042BF"/>
<path d="M42.433 193.658C41.9526 197.36 40.807 200.877 39.2199 204.249C37.6531 207.578 35.7481 210.729 33.9836 213.955C31.31 218.841 28.8119 224.412 28.8304 230.055H27.8474C27.8474 229.537 27.8677 229.013 27.9047 228.499C28.034 226.663 28.3943 224.838 28.9117 223.068C28.9616 222.902 29.0115 222.737 29.0613 222.569C31.1936 215.689 35.5559 209.836 38.5436 203.34C40.1197 199.911 41.2061 196.284 41.5591 192.521C41.9157 188.731 41.5923 184.9 40.6001 181.223C40.4301 180.603 41.3965 180.342 41.5627 180.959C42.6787 185.085 42.9799 189.424 42.433 193.658Z" fill="#D3E3FF"/>
<path d="M29.3256 220.274C29.2553 221.042 29.1685 221.808 29.0613 222.571C28.7916 224.569 28.4017 226.547 27.9047 228.499C27.7717 229.021 27.6312 229.541 27.4816 230.055H22.9492V230.267C22.9086 230.193 22.8624 230.123 22.8125 230.055C22.5298 229.62 22.2286 229.19 21.909 228.776C19.1892 225.188 15.394 222.305 11.6044 219.758C10.7305 219.17 9.81404 218.554 9.30408 217.63C8.79781 216.709 8.85509 215.383 9.7198 214.78C10.2427 214.415 10.9504 214.382 11.4603 213.993C12.2493 213.392 12.2326 212.139 11.7208 211.291C11.2072 210.439 10.3406 209.881 9.53504 209.302C5.92282 206.695 3.05706 203.034 1.54935 198.848C0.0434933 194.661 -0.0710625 189.966 1.38676 185.759C2.33647 183.016 4.02709 180.419 6.53625 178.95C9.04909 177.484 12.4581 177.366 14.7621 179.145C16.3123 180.342 17.2048 182.248 17.469 184.183C17.7332 186.123 17.4154 188.097 16.8925 189.979C16.5599 191.174 16.159 192.516 16.7816 193.59C17.7221 195.203 20.0871 194.94 21.8646 195.53C24.2851 196.335 25.7374 199.286 24.8948 201.69C24.2777 203.445 22.6277 205.038 23.0878 206.844C23.4573 208.292 24.978 209.003 26.2067 209.903C26.3342 209.993 26.4524 210.085 26.5707 210.183C29.3884 212.485 29.6581 216.655 29.3256 220.274Z" fill="#1042BF"/>
<path d="M22.9492 230.055V230.267C22.9085 230.193 22.8624 230.123 22.8125 230.055H21.9533C21.9459 229.629 21.9293 229.2 21.9108 228.776C21.8905 228.344 21.8609 227.915 21.8276 227.485C21.5376 223.833 20.7708 220.22 19.5605 216.762C18.9434 214.996 18.208 213.274 17.3544 211.608C16.4583 209.858 15.4088 208.194 14.4979 206.45C11.0113 199.773 9.77522 192.04 10.9319 184.607C11.0279 183.971 11.9924 184.242 11.8945 184.869C11.2441 189.048 11.3938 193.354 12.301 197.484C13.1251 201.231 14.6032 204.69 16.5045 208.011C17.4708 209.7 18.4168 211.392 19.2076 213.175C19.9449 214.83 20.5805 216.533 21.1034 218.268C22.2563 222.091 22.8734 226.066 22.9492 230.055Z" fill="#D3E3FF"/>
<path d="M22.9496 230.055V230.268C22.9088 230.194 22.8625 230.123 22.8125 230.055H22.9496Z" fill="#C7C7E3"/>
<path d="M231.732 205.394C230.418 206.585 228.809 207.405 227.427 208.516C226.043 209.624 224.834 211.176 224.821 212.948C224.812 214.537 225.764 216.001 225.825 217.59C225.904 219.767 224.286 221.669 222.453 222.86C220.623 224.047 218.51 224.766 216.706 225.999C215.186 227.041 213.928 228.447 213.037 230.057H210.051C210.594 226.914 211.963 223.832 211.518 220.683C211.265 218.895 210.441 217.249 209.863 215.542C209.282 213.833 208.95 211.91 209.669 210.258C209.722 210.139 209.779 210.019 209.842 209.903C210.282 209.079 210.938 208.373 211.509 207.622C213.872 204.494 214.735 200.291 213.802 196.486C213.242 194.208 212.089 192.123 211.332 189.903C209.536 184.629 210.424 178.05 214.848 174.647C217.867 172.323 221.909 171.864 225.725 171.842L228.158 171.912C229.999 171.652 231.649 173.309 232.122 175.097C232.595 176.889 232.229 178.778 231.992 180.616C231.756 182.452 231.689 184.443 232.665 186.019C233.241 186.95 234.134 187.653 234.684 188.596C235.218 189.514 235.39 190.591 235.508 191.645C236.052 196.553 235.392 202.068 231.732 205.394Z" fill="#1042BF"/>
<path d="M226.067 193.658C225.586 197.36 224.441 200.877 222.854 204.249C221.287 207.578 219.382 210.729 217.617 213.955C214.944 218.841 212.446 224.412 212.464 230.055H211.481C211.481 229.537 211.502 229.013 211.538 228.499C211.668 226.663 212.028 224.838 212.545 223.068C212.595 222.902 212.645 222.737 212.695 222.569C214.827 215.689 219.19 209.836 222.177 203.34C223.754 199.911 224.84 196.284 225.193 192.521C225.549 188.731 225.226 184.9 224.234 181.223C224.064 180.603 225.03 180.342 225.197 180.959C226.313 185.085 226.614 189.424 226.067 193.658Z" fill="#D3E3FF"/>
<path d="M212.959 220.274C212.889 221.042 212.802 221.808 212.695 222.571C212.425 224.569 212.036 226.547 211.538 228.499C211.405 229.021 211.265 229.541 211.115 230.055H206.583V230.267C206.542 230.193 206.496 230.123 206.446 230.055C206.164 229.62 205.862 229.19 205.543 228.776C202.823 225.188 199.028 222.305 195.238 219.758C194.364 219.17 193.448 218.554 192.938 217.63C192.432 216.709 192.489 215.383 193.354 214.78C193.876 214.415 194.584 214.382 195.094 213.993C195.883 213.392 195.866 212.139 195.355 211.291C194.841 210.439 193.974 209.881 193.169 209.302C189.557 206.695 186.691 203.034 185.183 198.848C183.677 194.661 183.563 189.966 185.021 185.759C185.97 183.016 187.661 180.419 190.17 178.95C192.683 177.484 196.092 177.366 198.396 179.145C199.946 180.342 200.839 182.248 201.103 184.183C201.367 186.123 201.049 188.097 200.526 189.979C200.194 191.174 199.793 192.516 200.415 193.59C201.356 195.203 203.721 194.94 205.498 195.53C207.919 196.335 209.371 199.286 208.529 201.69C207.911 203.445 206.262 205.038 206.722 206.844C207.091 208.292 208.612 209.003 209.84 209.903C209.968 209.993 210.086 210.085 210.204 210.183C213.022 212.485 213.292 216.655 212.959 220.274Z" fill="#1042BF"/>
<path d="M206.583 230.055V230.267C206.542 230.193 206.496 230.123 206.446 230.055H205.587C205.58 229.629 205.563 229.2 205.545 228.776C205.524 228.344 205.495 227.915 205.461 227.485C205.171 223.833 204.405 220.22 203.194 216.762C202.577 214.996 201.842 213.274 200.988 211.608C200.092 209.858 199.043 208.194 198.132 206.45C194.645 199.773 193.409 192.04 194.566 184.607C194.662 183.971 195.626 184.242 195.528 184.869C194.878 189.048 195.028 193.354 195.935 197.484C196.759 201.231 198.237 204.69 200.138 208.011C201.105 209.7 202.051 211.392 202.841 213.175C203.579 214.83 204.214 216.533 204.737 218.268C205.89 222.091 206.507 226.066 206.583 230.055Z" fill="#D3E3FF"/>
<path d="M206.583 230.055V230.268C206.543 230.194 206.496 230.123 206.446 230.055H206.583Z" fill="#C7C7E3"/>
<path d="M202.295 47.8237H184.298V32.8607H195.684C199.335 32.8607 202.295 35.8139 202.295 39.4565V47.8237Z" fill="#467EF9"/>
<path d="M84.2109 34.5843C81.3378 34.6323 79.4994 33.1501 78.4591 30.4901C69.5662 31.4653 65.7711 22.8233 70.7229 16.257C69.7639 10.6678 72.371 4.19002 81.2362 5.24077C83.7139 0.0718184 91.6497 -1.48587 95.2194 6.5072C104.41 1.17787 109.513 10.0853 104.146 17.3281C106.834 27.277 102.228 29.679 95.5169 29.9039L84.2109 34.5843Z" fill="#001065"/>
<path d="M113.007 102.575V154.904C113.007 157.68 111.878 160.197 110.053 162.018C108.227 163.839 105.707 164.966 102.922 164.966C97.6972 164.966 93.3404 160.982 92.8784 155.793L92.4165 150.552L90.0903 124.296V124.291L88.1687 102.577H113.007V102.575Z" fill="#FFBB83"/>
<path d="M92.8379 155.067L86.0828 219.726L100.524 221.643L112.824 158.009C113.879 152.554 110.3 147.28 104.833 146.227L104.776 146.216C98.9629 145.099 93.4421 149.192 92.8379 155.067Z" fill="#FFBB83"/>
<path d="M67.1755 102.573H92.0139L87.3005 155.789C86.8404 160.98 82.4817 164.962 77.2583 164.962C71.6894 164.962 67.1774 160.459 67.1774 154.904V102.573H67.1755Z" fill="#FFBB83"/>
<path d="M85.7666 160.929L52.5121 215.857L39.2476 210.194L68.0289 151.282C70.4771 146.292 76.5153 144.227 81.517 146.67L81.5687 146.696C86.8863 149.289 88.8282 155.874 85.7666 160.929Z" fill="#FFBB83"/>
<path d="M166.763 29.0227C165.134 27.7471 162.033 30.0053 159.617 32.1547C159.478 30.4016 158.915 28.7241 158.114 28.584C156.963 28.3812 155.764 31.4247 155.373 33.6423C155.3 34.0516 155.262 34.4516 155.254 34.835C154.508 35.8434 154.149 37.1375 154.367 38.4739C154.794 41.1027 157.277 42.8908 159.912 42.4649C160.217 42.4152 160.509 42.3359 160.79 42.2345C162.054 41.9986 163.36 41.3405 164.467 40.2805C166.908 37.9375 170.464 31.9206 166.763 29.0227Z" fill="#FFBB83"/>
<path d="M94.3512 46.0061C98.2184 41.2317 105.234 40.4869 110.019 44.3452L135.412 64.8145C139.174 67.847 139.76 73.3477 136.72 77.0991L136.685 77.1415C133.951 80.5168 129.149 81.3795 125.407 79.1656L97.3333 62.5527C91.4946 59.0963 90.0849 51.2765 94.3512 46.0061Z" fill="#C9E2F4"/>
<path d="M123.672 64.4901L155.247 34.5862L162.65 41.8732L137.877 76.5848C134.496 81.1694 127.825 81.6947 123.764 77.6982C120.082 74.0759 120.041 68.1622 123.672 64.4901Z" fill="#FFBB83"/>
<path d="M113.04 102.575C109.892 108.01 104.861 109.046 98.6507 108.345C93.5234 107.775 87.5868 106.024 81.2492 104.596C76.6743 103.56 71.8962 102.701 67.0535 102.575V43.0825C70.7377 40.3008 75.7339 38.5864 81.2492 37.9559C85.4804 37.473 90.0146 37.6204 94.4934 38.4113C99.2327 39.2482 103.915 40.8003 108.102 43.0825L113.04 102.575Z" fill="#E5565E"/>
<path d="M94.4452 39.2906C94.2622 42.3212 93.2405 45.8071 89.4749 45.6246C82.8713 45.3057 81.2749 38.3799 81.2749 38.3799C81.2749 38.3799 81.8126 28.4697 81.9678 28.3702H94.2364V34.9678C94.2345 34.9678 94.5819 36.9974 94.4452 39.2906Z" fill="#FFBB83"/>
<path d="M94.4452 39.2906C84.95 37.3255 83.5994 32.328 83.5994 32.328L93.1408 28.3702H94.2346V34.9678C94.2346 34.9678 94.582 36.9974 94.4452 39.2906Z" fill="#F35757"/>
<path d="M80.1665 24.7773C80.1665 24.7773 83.0138 38.6601 93.6287 35.8176C94.8519 35.4894 95.9549 34.8516 96.816 33.9834C97.5901 33.2018 98.1722 32.2358 98.477 31.1408C99.545 27.2918 99.5801 23.0187 98.4308 14.81C95.9235 8.35801 82.7329 10.1369 80.3919 16.34L80.1665 24.7773Z" fill="#FFBB83"/>
<path d="M79.4939 25.8226C79.529 25.8226 81.6095 23.5625 83.4276 26.6078C83.4276 26.6078 80.22 25.0999 79.5309 25.8226" fill="#F35757"/>
<path d="M110.358 70.26L109.192 56.2132L111.531 70.9531L110.358 70.26Z" fill="#A3CCE5"/>
<path d="M118.777 146.566H61.3201C60.629 146.566 60.0988 145.969 60.1856 145.285L60.3112 144.29L67.1791 102.892H112.978L119.788 144.29L119.914 145.285C119.999 145.969 119.468 146.566 118.777 146.566Z" fill="#001065"/>
<path d="M92.6734 146.566H92.0637L90.0903 124.294V124.289L90.9292 114.814C90.9273 114.814 95.2343 104.964 92.6734 146.566Z" fill="#000E49"/>
<path d="M113.04 102.575C109.892 108.01 104.861 109.046 98.6507 108.345L94.4934 38.4113C99.2327 39.2482 103.915 40.8003 108.102 43.0825L113.04 102.575Z" fill="#C9E2F4"/>
<path d="M81.2492 37.9559V104.596C76.6744 103.56 71.8962 102.701 67.0535 102.575V43.0825C70.7377 40.2989 75.7339 38.5864 81.2492 37.9559Z" fill="#C9E2F4"/>
<path d="M67.9015 43.0641C73.8787 41.6022 79.9095 45.2522 81.3747 51.2157L89.1442 82.8487C90.2953 87.5347 87.4204 92.2649 82.7236 93.4133L82.67 93.4262C78.4443 94.4586 74.1004 92.2409 72.4689 88.2186L60.2262 58.0308C57.6782 51.7502 61.3052 44.677 67.9015 43.0641Z" fill="#C9E2F4"/>
<path d="M131.549 56.8657L123.641 79.796L115.511 75.3036L122.95 53.9144L131.549 56.8657Z" fill="#85C5E5"/>
<path d="M67.1071 74.9958L69.9894 82.104L67.0535 84.8249" fill="#A3CCE5"/>
<path d="M81.3748 51.2138L85.0276 70.3135L85.9995 70.0425L81.3748 51.2138Z" fill="#D2EAF9"/>
<path d="M34.2756 217.632L55.3835 226.796C57.0261 227.509 58.5745 227.008 59.5575 225.97C60.8268 224.641 61.1557 222.42 59.5408 220.775L53.3659 214.482L40.0201 208.688L35.6004 215.569L34.2756 217.632Z" fill="#303D8B"/>
<path d="M35.5986 215.569L34.2756 217.632L55.3835 226.796C57.0261 227.509 58.5745 227.008 59.5575 225.97L35.5986 215.569Z" fill="#001065"/>
<path d="M98.4307 14.81C98.4307 14.81 95.5058 18.8083 80.3807 16.7253L78.5977 10.7489L97.1964 9.33316L98.4307 14.81Z" fill="#001065"/>
<path d="M83.8915 17.1235C83.8915 17.1235 81.7093 29.2495 79.4958 28.8237C77.2823 28.396 74.1523 15.4515 74.1523 15.4515L83.8915 15.1197V17.1235Z" fill="#001065"/>
<path d="M81.4191 30.232C82.9773 30.232 84.2405 28.6094 84.2405 26.6078C84.2405 24.6063 82.9773 22.9837 81.4191 22.9837C79.8608 22.9837 78.5977 24.6063 78.5977 26.6078C78.5977 28.6094 79.8608 30.232 81.4191 30.232Z" fill="#FFBB83"/>
<path d="M79.494 26.0474C79.4552 26.0677 81.4784 23.9128 82.999 26.3313C82.999 26.3332 80.7892 25.3838 79.494 26.0474Z" fill="#F35757"/>
<path d="M118.779 146.566H61.3183C60.6328 146.566 60.1007 145.967 60.1857 145.287C60.2578 144.718 60.7418 144.29 61.3183 144.29H118.779C119.354 144.29 119.84 144.718 119.912 145.287C119.997 145.967 119.467 146.566 118.779 146.566Z" fill="#303D8B"/>
<path d="M110.908 227.793C110.424 229.135 109.203 230.212 107.412 230.212H84.394L84.7821 227.793L86.0828 219.724H100.639L108.819 223.037C110.954 223.902 111.542 226.069 110.908 227.793Z" fill="#303D8B"/>
<path d="M110.908 227.793C110.424 229.135 109.203 230.212 107.412 230.212H84.394L84.7821 227.793H110.908Z" fill="#001065"/>
<path d="M187.297 224.383H130.307V46.8375C130.307 39.1173 136.58 32.8607 144.316 32.8607H193.294C193.294 32.8607 187.295 35.8526 187.295 44.83C187.295 49.0625 187.295 50.8156 187.295 50.8156V224.383H187.297Z" fill="#82B1F4"/>
<path d="M134.065 101.666C134.608 99.6718 131.314 97.7048 128.389 96.3186C129.954 95.5093 131.282 94.3369 131.099 93.5461C130.839 92.4105 127.561 92.4953 125.361 92.9967C124.954 93.0889 124.57 93.2106 124.213 93.3544C122.992 93.0613 121.658 93.2364 120.509 93.9572C118.247 95.3747 117.565 98.3519 118.986 100.606C119.15 100.868 119.337 101.106 119.54 101.323C120.252 102.393 121.368 103.336 122.777 103.941C125.891 105.274 132.833 106.196 134.065 101.666Z" fill="#FFBB83"/>
<path d="M84.5327 75.8953L124.441 93.253L120.599 102.894L78.9028 93.6585C73.3523 92.3386 70.2686 86.4139 72.3749 81.1251C74.2854 76.3322 79.7287 73.9911 84.5327 75.8953Z" fill="#FFBB83"/>
<path d="M90.822 75.2077L73.0399 91.7377L67.981 83.9621L84.623 68.5696L90.822 75.2077Z" fill="#85C5E5"/>
<path d="M147.99 98.4588C147.99 97.2274 148.385 95.9794 149.176 94.7148C149.968 93.4502 151.123 92.4031 152.644 91.5718C154.164 90.7422 155.936 90.3256 157.965 90.3238C159.85 90.3219 161.513 90.6685 162.956 91.3616C164.399 92.0547 165.513 92.9967 166.3 94.1894C167.087 95.3821 167.481 96.678 167.481 98.0772C167.481 99.1796 167.257 100.146 166.81 100.975C166.363 101.805 165.829 102.522 165.214 103.124C164.596 103.727 163.49 104.743 161.891 106.17C161.45 106.572 161.095 106.926 160.829 107.23C160.563 107.534 160.365 107.814 160.236 108.067C160.107 108.319 160.005 108.572 159.935 108.824C159.863 109.077 159.756 109.521 159.613 110.157C159.368 111.507 158.593 112.179 157.294 112.181C156.618 112.181 156.049 111.962 155.589 111.521C155.127 111.081 154.896 110.426 154.896 109.558C154.896 108.469 155.064 107.527 155.401 106.728C155.739 105.93 156.186 105.23 156.744 104.627C157.302 104.024 158.056 103.307 159.004 102.477C159.835 101.751 160.435 101.204 160.805 100.833C161.175 100.463 161.487 100.051 161.74 99.598C161.993 99.1445 162.119 98.6523 162.119 98.1196C162.119 97.0818 161.731 96.208 160.958 95.4946C160.184 94.783 159.186 94.4254 157.965 94.4272C156.535 94.4272 155.484 94.7885 154.807 95.5075C154.131 96.2282 153.56 97.2882 153.095 98.6874C152.653 100.153 151.816 100.885 150.582 100.887C149.854 100.887 149.24 100.632 148.74 100.12C148.241 99.6091 147.991 99.056 147.99 98.4588ZM157.514 119.767C156.722 119.767 156.029 119.511 155.438 119C154.846 118.488 154.551 117.772 154.549 116.852C154.549 116.036 154.833 115.348 155.406 114.79C155.977 114.233 156.679 113.953 157.511 113.953C158.329 113.953 159.018 114.231 159.578 114.788C160.136 115.345 160.417 116.032 160.417 116.849C160.417 117.756 160.125 118.469 159.541 118.989C158.957 119.509 158.281 119.767 157.514 119.767Z" fill="#D5E4FF"/>
</svg>
